<?xml version="1.0" encoding="UTF-8" standalone="no"?>
<!-- Created with Inkscape (http://www.inkscape.org/) -->

<svg
   xmlns:dc="http://purl.org/dc/elements/1.1/"
   xmlns:cc="http://creativecommons.org/ns#"
   xmlns:rdf="http://www.w3.org/1999/02/22-rdf-syntax-ns#"
   xmlns:svg="http://www.w3.org/2000/svg"
   xmlns="http://www.w3.org/2000/svg"
   xmlns:sodipodi="http://sodipodi.sourceforge.net/DTD/sodipodi-0.dtd"
   xmlns:inkscape="http://www.inkscape.org/namespaces/inkscape"
   version="1.0"
   width="50"
   height="62.905376"
   id="svg2429"
   sodipodi:docname="andGate.svg"
   inkscape:version="0.92.2 5c3e80d, 2017-08-06">
  <metadata
     id="metadata905">
    <rdf:RDF>
      <cc:Work
         rdf:about="">
        <dc:format>image/svg+xml</dc:format>
        <dc:type
           rdf:resource="http://purl.org/dc/dcmitype/StillImage" />
        <dc:title></dc:title>
      </cc:Work>
    </rdf:RDF>
  </metadata>
  <sodipodi:namedview
     pagecolor="#ffffff"
     bordercolor="#666666"
     borderopacity="1"
     objecttolerance="10"
     gridtolerance="10"
     guidetolerance="10"
     inkscape:pageopacity="0"
     inkscape:pageshadow="2"
     inkscape:window-width="1122"
     inkscape:window-height="640"
     id="namedview903"
     showgrid="false"
     fit-margin-top="0"
     fit-margin-left="0"
     fit-margin-right="0"
     fit-margin-bottom="0"
     inkscape:zoom="3.7653436"
     inkscape:cx="2.7603177"
     inkscape:cy="25.106538"
     inkscape:window-x="0"
     inkscape:window-y="0"
     inkscape:window-maximized="0"
     inkscape:current-layer="svg2429" />
  <defs
     id="defs2431" />
  <path
     inkscape:connector-curvature="0"
     id="path2089"
     style="font-style:normal;font-variant:normal;font-weight:normal;font-stretch:normal;letter-spacing:normal;word-spacing:normal;text-anchor:start;fill:#ffffff;fill-opacity:1;stroke:#228b22;stroke-width:2;stroke-linecap:square;stroke-linejoin:miter;stroke-miterlimit:10.43000031;stroke-dasharray:none;stroke-dashoffset:0;stroke-opacity:1"
     d="M 1,61.905376 C 1,49.853802 1,37.802111 1,25.750538 c 0,-1.7857 0.222408,-3.794606 0.667223,-6.025557 0.4448264,-2.232119 1.3344228,-4.46307 2.6689615,-6.67532 1.3142744,-2.232121 3.3361731,-4.4630707 5.9848695,-6.6951914 2.668844,-2.2321197 5.802839,-3.7945967 9.34119,-4.6862774 3.558498,-0.89271122 7.117113,-0.89271122 10.675612,0 3.558502,0.8927039 6.67223,2.455327 9.34119,4.6862774 2.648702,2.2321207 4.650333,4.4630704 6.005018,6.6951914 1.314272,2.211088 2.20392,4.443201 2.648692,6.67532 0.444814,2.232121 0.667242,4.239857 0.667242,6.025557 0,1.785695 0,8.257672 0,19.416515 0,11.159428 0,16.738323 0,16.738323 0,0 -8.006775,0 -24.020154,0 z" />
</svg>
