<?xml version="1.0" encoding="UTF-8" standalone="no"?>
<!-- Created with Inkscape (http://www.inkscape.org/) -->

<svg
   xmlns:dc="http://purl.org/dc/elements/1.1/"
   xmlns:cc="http://creativecommons.org/ns#"
   xmlns:rdf="http://www.w3.org/1999/02/22-rdf-syntax-ns#"
   xmlns:svg="http://www.w3.org/2000/svg"
   xmlns="http://www.w3.org/2000/svg"
   xmlns:sodipodi="http://sodipodi.sourceforge.net/DTD/sodipodi-0.dtd"
   xmlns:inkscape="http://www.inkscape.org/namespaces/inkscape"
   width="74.108635mm"
   height="50mm"
   viewBox="0 0 74.108635 50"
   version="1.1"
   id="svg8"
   inkscape:version="0.92.2 5c3e80d, 2017-08-06"
   sodipodi:docname="webpage.svg">
  <defs
     id="defs2" />
  <sodipodi:namedview
     id="base"
     pagecolor="#ffffff"
     bordercolor="#666666"
     borderopacity="1.0"
     inkscape:pageopacity="0.0"
     inkscape:pageshadow="2"
     inkscape:zoom="1.4"
     inkscape:cx="-0.41214197"
     inkscape:cy="172.77187"
     inkscape:document-units="mm"
     inkscape:current-layer="layer1"
     showgrid="false"
     inkscape:snap-global="false"
     inkscape:window-width="2560"
     inkscape:window-height="1395"
     inkscape:window-x="1280"
     inkscape:window-y="1"
     inkscape:window-maximized="1"
     fit-margin-top="0"
     fit-margin-left="0"
     fit-margin-right="0"
     fit-margin-bottom="0" />
  <metadata
     id="metadata5">
    <rdf:RDF>
      <cc:Work
         rdf:about="">
        <dc:format>image/svg+xml</dc:format>
        <dc:type
           rdf:resource="http://purl.org/dc/dcmitype/StillImage" />
        <dc:title></dc:title>
      </cc:Work>
    </rdf:RDF>
  </metadata>
  <g
     inkscape:label="Layer 1"
     inkscape:groupmode="layer"
     id="layer1"
     transform="translate(80.206463,-184.52047)">
    <rect
       style="opacity:1;fill:none;fill-opacity:1;stroke:#000000;stroke-width:0.52899998;stroke-miterlimit:10.43299961;stroke-dasharray:none"
       id="rect815"
       width="73.579636"
       height="49.471001"
       x="-79.941963"
       y="184.78497"
       ry="2.4402757" />
    <path
       style="fill:none;stroke:#000000;stroke-width:2;stroke-linecap:butt;stroke-linejoin:miter;stroke-miterlimit:4;stroke-dasharray:none;stroke-opacity:1"
       d="m -302.1422,735.67183 278.09561,10e-6"
       id="path856"
       transform="scale(0.26458333)"
       inkscape:connector-curvature="0" />
    <g
       id="g839"
       transform="translate(1.889881,-0.56696429)">
      <path
         inkscape:connector-curvature="0"
         id="path828"
         d="m -14.17418,187.38686 a 3.0237789,3.0237788 0 0 0 -3.023736,3.02373 3.0237789,3.0237788 0 0 0 3.023736,3.02374 3.0237789,3.0237788 0 0 0 3.023737,-3.02374 3.0237789,3.0237788 0 0 0 -3.023737,-3.02373 z m 0,1.20956 a 1.8142674,1.8142673 0 0 1 1.814181,1.81417 1.8142674,1.8142673 0 0 1 -1.814181,1.81418 1.8142674,1.8142673 0 0 1 -1.814182,-1.81418 1.8142674,1.8142673 0 0 1 1.814182,-1.81417 z"
         style="opacity:1;fill:#000000;fill-opacity:1;stroke:#000000;stroke-width:0.52899998;stroke-miterlimit:10.43299961;stroke-dasharray:none" />
      <path
         style="opacity:1;fill:#000000;fill-opacity:1;stroke:#000000;stroke-width:0.52899998;stroke-miterlimit:10.43299961;stroke-dasharray:none"
         d="m -22.678643,187.38686 a 3.0237789,3.0237788 0 0 0 -3.023736,3.02373 3.0237789,3.0237788 0 0 0 3.023736,3.02374 3.0237789,3.0237788 0 0 0 3.023737,-3.02374 3.0237789,3.0237788 0 0 0 -3.023737,-3.02373 z m 0,1.20956 a 1.8142674,1.8142673 0 0 1 1.814181,1.81417 1.8142674,1.8142673 0 0 1 -1.814181,1.81418 1.8142674,1.8142673 0 0 1 -1.814182,-1.81418 1.8142674,1.8142673 0 0 1 1.814182,-1.81417 z"
         id="path830"
         inkscape:connector-curvature="0" />
      <path
         inkscape:connector-curvature="0"
         id="path832"
         d="m -31.183108,187.38686 a 3.0237789,3.0237788 0 0 0 -3.023736,3.02373 3.0237789,3.0237788 0 0 0 3.023736,3.02374 3.0237789,3.0237788 0 0 0 3.023737,-3.02374 3.0237789,3.0237788 0 0 0 -3.023737,-3.02373 z m 0,1.20956 a 1.8142674,1.8142673 0 0 1 1.814181,1.81417 1.8142674,1.8142673 0 0 1 -1.814181,1.81418 1.8142674,1.8142673 0 0 1 -1.814182,-1.81418 1.8142674,1.8142673 0 0 1 1.814182,-1.81417 z"
         style="opacity:1;fill:#000000;fill-opacity:1;stroke:#000000;stroke-width:0.52899998;stroke-miterlimit:10.43299961;stroke-dasharray:none" />
    </g>
    <rect
       style="opacity:1;fill:#a9a9a9;fill-opacity:1;stroke:none;stroke-width:0.52899998;stroke-miterlimit:10.43299961;stroke-dasharray:none"
       id="rect841"
       width="28.915178"
       height="20.694195"
       x="-38.137787"
       y="207.79765"
       ry="1"
       rx="0.96226412" />
    <rect
       rx="0.39622641"
       ry="1.4657536"
       y="198.15926"
       x="-77.258324"
       height="30.332588"
       width="11.906249"
       id="rect843"
       style="opacity:1;fill:#d3d3d3;fill-opacity:1;stroke:none;stroke-width:0.52899998;stroke-miterlimit:10.43299961;stroke-dasharray:none" />
    <rect
       style="opacity:1;fill:#000000;fill-opacity:1;stroke:none;stroke-width:0.52899998;stroke-miterlimit:10.43299961;stroke-dasharray:none"
       id="rect845"
       width="53.672619"
       height="4.1577382"
       x="-62.32827"
       y="198.15926"
       rx="0.7533161"
       ry="2.0788691" />
    <rect
       ry="2.0788691"
       rx="0.31565005"
       y="214.28624"
       x="-62.32827"
       height="4.1577382"
       width="22.489584"
       id="rect847"
       style="opacity:1;fill:#000000;fill-opacity:1;stroke:none;stroke-width:0.52899998;stroke-miterlimit:10.43299961;stroke-dasharray:none" />
    <rect
       style="opacity:1;fill:#000000;fill-opacity:1;stroke:none;stroke-width:0.52899998;stroke-miterlimit:10.43299961;stroke-dasharray:none"
       id="rect849"
       width="22.867561"
       height="4.1577382"
       x="-62.32827"
       y="222.34973"
       rx="0.3209551"
       ry="2.0788691" />
    <rect
       ry="2.0788691"
       rx="0.3209551"
       y="206.22275"
       x="-62.32827"
       height="4.1577382"
       width="22.867561"
       id="rect851"
       style="opacity:1;fill:#000000;fill-opacity:1;stroke:none;stroke-width:0.52899998;stroke-miterlimit:10.43299961;stroke-dasharray:none" />
  </g>
</svg>
