<?xml version="1.0" encoding="UTF-8" standalone="no"?>
<svg
   xmlns:dc="http://purl.org/dc/elements/1.1/"
   xmlns:cc="http://creativecommons.org/ns#"
   xmlns:rdf="http://www.w3.org/1999/02/22-rdf-syntax-ns#"
   xmlns:svg="http://www.w3.org/2000/svg"
   xmlns="http://www.w3.org/2000/svg"
   xmlns:sodipodi="http://sodipodi.sourceforge.net/DTD/sodipodi-0.dtd"
   xmlns:inkscape="http://www.inkscape.org/namespaces/inkscape"
   class="icon"
   height="435.20001"
   viewBox="0 0 435.20001 870.40002"
   version="1.1"
   id="svg4"
   sodipodi:docname="article.svg"
   width="435.20001"
   inkscape:version="0.92.2 5c3e80d, 2017-08-06">
  <metadata
     id="metadata10">
    <rdf:RDF>
      <cc:Work
         rdf:about="">
        <dc:format>image/svg+xml</dc:format>
        <dc:type
           rdf:resource="http://purl.org/dc/dcmitype/StillImage" />
        <dc:title></dc:title>
      </cc:Work>
    </rdf:RDF>
  </metadata>
  <defs
     id="defs8" />
  <sodipodi:namedview
     pagecolor="#ffffff"
     bordercolor="#666666"
     borderopacity="1"
     objecttolerance="10"
     gridtolerance="10"
     guidetolerance="10"
     inkscape:pageopacity="0"
     inkscape:pageshadow="2"
     inkscape:window-width="1353"
     inkscape:window-height="906"
     id="namedview6"
     showgrid="false"
     fit-margin-top="0"
     fit-margin-left="0"
     fit-margin-right="0"
     fit-margin-bottom="0"
     inkscape:zoom="0.28125"
     inkscape:cx="-173.6795"
     inkscape:cy="224.82944"
     inkscape:window-x="2024"
     inkscape:window-y="218"
     inkscape:window-maximized="0"
     inkscape:current-layer="svg4" />
  <path
     d="M 74.721285,143.43169 H 295.59809 c 17.31583,0 33.06495,7.20896 44.4416,18.81088 11.37664,11.60192 18.47296,27.65824 18.47296,45.33248 v 122.59328 l -47.45216,25.64096 V 207.56481 c 0,-4.31104 -1.7408,-8.2432 -4.5568,-11.1104 -2.79553,-2.87744 -6.656,-4.6592 -10.89536,-4.6592 H 99.952645 l 1.075205,14.97088 1.51552,20.65408 c 1.44384,6.69696 1.28,13.09696 -0.11264,19.0464 -2.2528,9.53344 -7.567365,17.54112 -14.336005,23.62368 -6.53312,5.84704 -14.53056,10.01472 -22.45632,12.01152 -6.10304,1.55648 -12.288,1.85344 -17.95072,0.67584 l -20.72576,-2.6112 -22.96832,-2.93888 v 317.63456 c 0,4.36224 1.71008,8.31488 4.4544,11.13088 l 0.0922,0.0717 c 2.7648,2.80576 6.61504,4.5568 10.91584,4.5568 H 191.59045 l -6.52289,48.39424 H 19.466245 c -17.22368,0 -32.93184,-7.22944 -44.34944,-18.83136 l -0.041,-0.041 -0.0512,-0.0614 c -11.36636,-11.66338 -18.46268,-27.65826 -18.46268,-45.21986 V 259.05153 248.71937 l 7.41376,-7.17824 94.47424,-91.40224 6.93248,-6.69696 h 9.33888 z m 351.754235,239.7696 -1.90464,-12.88192 -33.05472,-18.24768 -42.20927,22.82496 37.76511,20.85888 44.87169,24.75008 13.45535,7.43424 c -10.63936,47.5136 -30.91456,89.58976 -61.65503,125.75744 l 22.29248,19.6608 c 36.56703,-43.0592 59.70943,-93.41952 70.5536,-150.44608 l 2.07872,-10.9056 -9.50273,-5.26336 z m -86.27199,8.81664 c -48.38401,58.79808 -82.55489,124.57984 -104.25345,196.51584 27.56608,15.19616 55.12192,30.4128 82.65729,45.59872 44.49279,-60.90752 79.45215,-126.30016 104.25344,-196.49536 -27.55585,-15.2064 -55.11169,-30.40256 -82.65728,-45.6192 z m -113.16224,213.37088 -11.57121,85.8624 5.49888,3.0208 -5.75488,26.368 11.44832,6.32832 17.73568,-19.75296 4.15744,2.29376 61.12256,-58.49088 z M 51.036165,440.37121 v 24.576 h 59.627525 v -24.576 z m 0,-67.93216 v 24.58624 H 268.56448 v -24.58624 z m 0,-64.67584 v 24.576 H 268.56448 v -24.576 z m 97.658875,-64.04096 v 24.576 h 119.86944 v -24.576 z m -129.689595,11.07968 10.82368,1.34144 20.81792,2.65216 0.29696,0.0307 0.98304,0.256 c 2.2016,0.55296 5.00736,0.37888 8.0384,-0.39936 4.32128,-1.09568 8.77568,-3.4304 12.4416,-6.74816 3.42016,-3.05152 6.0416,-6.84032 7.02464,-11.04896 0.63488,-2.62144 0.65536,-5.57056 -0.13312,-8.82688 l -0.256,-1.024 -0.0614,-0.99328 -1.57696,-21.56544 -0.69632,-9.53344 z M 217.6,870.40001 c -239.974395,0 -435.19999,-195.2256 -435.19999,-435.2 0,-239.9744 195.225595,-435.2 435.19999,-435.2 239.96416,0 435.20001,195.2256 435.20001,435.2 0,239.9744 -195.23585,435.2 -435.20001,435.2 z m 0,-849.92 c -228.679675,0 -414.72,186.04032 -414.72,414.72 0,228.67968 186.040325,414.72 414.72,414.72 228.67968,0 414.72001,-186.04032 414.72001,-414.72 0,-228.67968 -186.05056,-414.72 -414.72001,-414.72 z"
     id="path2"
     inkscape:connector-curvature="0" />
</svg>
